<svg xmlns="http://www.w3.org/2000/svg" width="512" height="512" viewBox="0 0 512 512">
  <defs>
    <radialGradient id="bg" cx="35%" cy="25%" r="85%">
      <stop offset="0" stop-color="#123b62"/>
      <stop offset="0.58" stop-color="#061a31"/>
      <stop offset="1" stop-color="#020914"/>
    </radialGradient>
    <linearGradient id="ring" x1="0" y1="0" x2="1" y2="1">
      <stop offset="0" stop-color="#65eaff"/>
      <stop offset="0.48" stop-color="#149bd8"/>
      <stop offset="1" stop-color="#7a5cff"/>
    </linearGradient>
    <linearGradient id="core" x1="0" y1="0" x2="1" y2="1">
      <stop offset="0" stop-color="#b5f7ff"/>
      <stop offset="0.45" stop-color="#20c9f2"/>
      <stop offset="1" stop-color="#5741e8"/>
    </linearGradient>
    <filter id="glow" x="-50%" y="-50%" width="200%" height="200%">
      <feGaussianBlur stdDeviation="8" result="blur"/>
      <feMerge><feMergeNode in="blur"/><feMergeNode in="SourceGraphic"/></feMerge>
    </filter>
    <clipPath id="round"><rect x="8" y="8" width="496" height="496" rx="112"/></clipPath>
  </defs>
  <rect x="8" y="8" width="496" height="496" rx="112" fill="url(#bg)"/>
  <g clip-path="url(#round)" opacity=".18" stroke="#6ee8ff" stroke-width="2">
    <path d="M-30 390 160 200 310 350 560 100" fill="none"/>
    <path d="M-30 440 150 260 290 400 560 140" fill="none"/>
    <circle cx="410" cy="88" r="125" fill="none"/>
  </g>
  <circle cx="256" cy="256" r="169" fill="none" stroke="#0c5d91" stroke-width="22" opacity=".45"/>
  <circle cx="256" cy="256" r="157" fill="none" stroke="url(#ring)" stroke-width="11" filter="url(#glow)"/>
  <circle cx="256" cy="256" r="126" fill="#031426" stroke="#33d8fa" stroke-width="3" opacity=".98"/>
  <path d="M256 135 285 211 363 240 285 269 256 347 227 269 149 240 227 211Z" fill="url(#core)" filter="url(#glow)"/>
  <path d="M256 164 274 220 330 240 274 260 256 316 238 260 182 240 238 220Z" fill="#d8fbff" opacity=".92"/>
  <circle cx="256" cy="240" r="14" fill="#fff" filter="url(#glow)"/>
  <g fill="#74efff">
    <circle cx="256" cy="55" r="5"/><circle cx="457" cy="256" r="5"/><circle cx="256" cy="457" r="5"/><circle cx="55" cy="256" r="5"/>
  </g>
  <path d="M142 405h228" stroke="#27cbed" stroke-width="4" stroke-linecap="round" opacity=".7"/>
  <text x="256" y="433" text-anchor="middle" fill="#b9f7ff" font-family="DejaVu Sans, sans-serif" font-size="24" font-weight="700" letter-spacing="8">JARVIS</text>
</svg>
